<svg version="1.1"
      xmlns="http://www.w3.org/2000/svg"
      xmlns:xlink="http://www.w3.org/1999/xlink"  id="snapshot-57918" width="250" height="250" viewBox="0 0 250 250"><desc>This image was made on Patterninja.com</desc><defs>
<!-- image 18402 -->
<g id="transformed-18402" data-image="18402" transform="translate(144.81, 188.37) rotate(0, 24, 23.999999999999986)"><g><svg version="1.1" width="48px" height="47.99999999999997px" viewBox="0 0 48 47.99999999999997"><g id="original-18402"><svg xmlns="http://www.w3.org/2000/svg" viewBox="0 0 512 512" xmlns:xlink="http://www.w3.org/1999/xlink" version="1.1" preserveAspectRatio="xMidYMid meet">
  <path d="M256 0C156.748 0 76 80.748 76 180c0 33.534 9.289 66.26 26.869 94.652l142.885 230.257A15 15 0 0 0 258.499 512h.119a14.997 14.997 0 0 0 12.75-7.292L410.611 272.22C427.221 244.428 436 212.539 436 180 436 80.748 355.252 0 256 0zm128.866 256.818L258.272 468.186l-129.905-209.34C113.734 235.214 105.8 207.95 105.8 180c0-82.71 67.49-150.2 150.2-150.2S406.1 97.29 406.1 180c0 27.121-7.411 53.688-21.234 76.818z" fill="rgba(0, 0, 0, 1)" stroke="none"/>
  <path d="M256 90c-49.626 0-90 40.374-90 90 0 49.309 39.717 90 90 90 50.903 0 90-41.233 90-90 0-49.626-40.374-90-90-90zm0 150.2c-33.257 0-60.2-27.033-60.2-60.2 0-33.084 27.116-60.2 60.2-60.2s60.1 27.116 60.1 60.2c0 32.683-26.316 60.2-60.1 60.2z" fill="rgba(0, 0, 0, 1)" stroke="none"/>
</svg>
</g></svg></g></g>
<!-- /image 18402 -->

<!-- image 43219 -->
<g id="transformed-43219" data-image="43219" transform="translate(45.93555086598187, 188.5509022209508) rotate(356, 31.064449134018133, 29.449097779049204)"><g><svg version="1.1" width="62.12889826803627px" height="58.89819555809841px" viewBox="0 0 62.12889826803627 58.89819555809841"><g id="original-43219"><svg xmlns="http://www.w3.org/2000/svg" viewBox="0 0 60 57" xmlns:xlink="http://www.w3.org/1999/xlink" version="1.1" preserveAspectRatio="xMidYMid meet">
  <path d="M51.16 34.74c8.2-2.66 8.37-12.49 8.37-12.9a1 1 0 0 0-.2-.6c-.24-.34-6.15-8.19-14.35-5.52a21.19 21.19 0 0 0-6.26 3.37 21 21 0 0 0 1.28-7C40 3.47 30.71.27 30.32.14a1 1 0 0 0-.64 0c-.39.13-9.68 3.33-9.68 12a21.13 21.13 0 0 0 1.28 7A21.23 21.23 0 0 0 15 15.72C6.81 13.05.91 20.9.67 21.24a1 1 0 0 0-.2.6c0 .41.17 10.24 8.37 12.9a20.89 20.89 0 0 0 7.05.95 21 21 0 0 0-5.15 4.9c-5.07 7 .57 15 .82 15.36a.91.91 0 0 0 .51.37A17.61 17.61 0 0 0 17 57c7.1 0 11-4.25 13-11 2.05 6.79 5.93 11 13 11a17.61 17.61 0 0 0 4.92-.69.91.91 0 0 0 .51-.37c.25-.34 5.89-8.38.82-15.36a21.35 21.35 0 0 0-5.14-4.9 21 21 0 0 0 7.05-.94zM30 2.17c1.52.6 8 3.55 8 9.93 0 5.77-3.26 11.76-6.88 16.22-.18-.07-.12.9-.12-11.22a1 1 0 0 0-2 0v10.42a39.59 39.59 0 0 0-4.07-5.11A22.1 22.1 0 0 1 22 12.1c0-6.36 6.48-9.32 8-9.93zM9.46 32.84c-6.05-2-6.87-9.05-7-10.68 1-1.26 5.84-6.51 11.91-4.54 5.5 1.79 10.18 6.73 13.3 11.57-.1.13.76.34-10.7-3.37a1 1 0 0 0-.62 1.9l9.91 3.22a38.72 38.72 0 0 0-6.13 2.31 22.11 22.11 0 0 1-10.67-.41zM25.3 51.17c-3.73 5.15-10.71 3.74-12.3 3.34-.88-1.39-4.38-7.6-.64-12.74 3.36-4.62 9.56-7.61 15.11-9.07.09.14.55-.58-6.51 9.14A1 1 0 0 0 22.58 43l6.13-8.44a38.89 38.89 0 0 0 .29 6.51 21.9 21.9 0 0 1-3.7 10.1zM30 32.1a1 1 0 1 1 0-2 1 1 0 0 1 0 2zm17.64 9.67c3.74 5.14.24 11.35-.64 12.74-1.59.4-8.57 1.81-12.3-3.34-3.4-4.68-4.27-11.41-4-17.17.16 0-.42-.77 6.68 9A1 1 0 1 0 39 41.84l-6.1-8.44a39.5 39.5 0 0 0 6.36 1.77 22.16 22.16 0 0 1 8.38 6.6zM33 31.29c0-.17-.75.14 10.64-3.57a1 1 0 0 0-.62-1.9L33.11 29a39.61 39.61 0 0 0 3.6-5.47 22.26 22.26 0 0 1 8.89-5.95c6-2 10.87 3.28 11.91 4.54-.1 1.64-.9 8.71-7 10.68-5.45 1.83-12.11.59-17.51-1.51z" fill="rgba(0, 0, 0, 1)" stroke="none"/>
</svg>
</g></svg></g></g>
<!-- /image 43219 -->

<!-- image 21132 -->
<g id="transformed-21132" data-image="21132" transform="translate(209.9444872453601, 123.94448724536011) rotate(356, 36.05551275463989, 36.055512754639885)"><g><svg version="1.1" width="72.11102550927978px" height="72.11102550927977px" viewBox="0 0 72.11102550927978 72.11102550927977"><g id="original-21132"><svg xmlns="http://www.w3.org/2000/svg" viewBox="0 0 128 128" xmlns:xlink="http://www.w3.org/1999/xlink" version="1.1" preserveAspectRatio="xMidYMid meet">
  <path d="M124.909 76.36a18.415 18.415 0 0 0-32.462 3.387c-.163.412-.317.83-.452 1.259l-.1.326a14.965 14.965 0 0 1-9.195 9.56l-2.413.863A18.427 18.427 0 0 0 68.1 109.067v.5a18.447 18.447 0 0 0 8.234 15.37 18.082 18.082 0 0 0 17.017 1.7A62.058 62.058 0 0 0 126.6 93.375a18.089 18.089 0 0 0-1.691-17.015zm-29.933 6.76A7.942 7.942 0 1 1 83.66 94.267l.224-.08A18.489 18.489 0 0 0 94.976 83.12zm28.4 8.912a58.531 58.531 0 0 1-31.37 31.368 14.408 14.408 0 0 1-13.73-1.374 14.955 14.955 0 0 1-6.676-12.461v-.5a14.917 14.917 0 0 1 8.594-13.483A11.442 11.442 0 1 0 96.325 79.66 14.92 14.92 0 0 1 122 78.3a14.412 14.412 0 0 1 1.372 13.732z" fill="rgba(0, 0, 0, 1)" stroke="none"/>
  <path d="M63.986 59.588a18.309 18.309 0 0 0-21.513-3.3l-.3.159a14.961 14.961 0 0 1-13.255.261L26.6 55.616a18.428 18.428 0 0 0-20.866 3.619l-.353.353A18.447 18.447 0 0 0 .335 76.279 18.094 18.094 0 0 0 11.168 89.51a62.057 62.057 0 0 0 47.031 0 18.094 18.094 0 0 0 10.833-13.231 18.449 18.449 0 0 0-5.046-16.691zm-20.9.306a7.942 7.942 0 1 1-15.883-.12l.214.1a18.49 18.49 0 0 0 15.668.02zm22.514 15.7a14.409 14.409 0 0 1-8.737 10.68 58.523 58.523 0 0 1-44.359 0A14.408 14.408 0 0 1 3.767 75.6a14.953 14.953 0 0 1 4.087-13.536l.354-.354a14.854 14.854 0 0 1 15.61-3.45 11.442 11.442 0 1 0 22.667.14A14.921 14.921 0 0 1 65.6 75.594z" fill="rgba(0, 0, 0, 1)" stroke="none"/>
  <path d="M83.017 58.5a17.992 17.992 0 0 0 6.913 1.38 18.194 18.194 0 0 0 10.1-3.075A18.418 18.418 0 0 0 95.388 23.9l-.328-.1a14.969 14.969 0 0 1-9.56-9.2l-.863-2.412-.012-.028a.546.546 0 0 0-.016-.043l-.006-.012A18.427 18.427 0 0 0 67.325 0h-.5a18.449 18.449 0 0 0-15.37 8.235 18.089 18.089 0 0 0-1.7 17.015A62.059 62.059 0 0 0 83.017 58.5zm10.255-31.626a7.938 7.938 0 1 1-11.143-11.307l.077.214a18.484 18.484 0 0 0 11.066 11.093zm-38.9-16.7A14.954 14.954 0 0 1 66.827 3.5h.5a14.922 14.922 0 0 1 13.484 8.594 11.442 11.442 0 1 0 15.922 16.129A14.92 14.92 0 0 1 98.091 53.9a14.411 14.411 0 0 1-13.731 1.371A58.533 58.533 0 0 1 52.994 23.9a14.412 14.412 0 0 1 1.374-13.725z" fill="rgba(0, 0, 0, 1)" stroke="none"/>
</svg>
</g></svg></g></g>
<!-- /image 21132 -->

<!-- image 81632 -->
<g id="transformed-81632" data-image="81632" transform="translate(29.193138050326453, 22.263138050326454) rotate(15, 28.22686194967355, 28.22686194967355)"><g><svg version="1.1" width="56.4537238993471px" height="56.4537238993471px" viewBox="0 0 56.4537238993471 56.4537238993471"><g id="original-81632"><svg xmlns="http://www.w3.org/2000/svg" viewBox="0 0 512 512" xmlns:xlink="http://www.w3.org/1999/xlink" version="1.1" preserveAspectRatio="xMidYMid meet">
  <ellipse cx="185.487" cy="331.697" transform="rotate(-35.59 185.491 331.693)" rx="9.022" ry="16.247" fill="rgba(0, 0, 0, 1)" stroke="none"/>
  <ellipse cx="218.499" cy="248.802" transform="rotate(-35.59 218.503 248.799)" rx="9.022" ry="16.247" fill="rgba(0, 0, 0, 1)" stroke="none"/>
  <ellipse cx="299.688" cy="302.042" transform="rotate(-35.59 299.691 302.036)" rx="9.022" ry="16.247" fill="rgba(0, 0, 0, 1)" stroke="none"/>
  <ellipse cx="415.328" cy="178.886" transform="rotate(-35.59 415.328 178.88)" rx="9.022" ry="16.247" fill="rgba(0, 0, 0, 1)" stroke="none"/>
  <ellipse cx="390.862" cy="279.287" transform="rotate(-35.59 390.865 279.28)" rx="9.022" ry="16.247" fill="rgba(0, 0, 0, 1)" stroke="none"/>
  <ellipse cx="441.703" cy="363.964" transform="rotate(-35.59 441.706 363.956)" rx="9.022" ry="16.247" fill="rgba(0, 0, 0, 1)" stroke="none"/>
  <ellipse cx="330.323" cy="409.136" transform="rotate(-35.59 330.325 409.128)" rx="9.022" ry="16.247" fill="rgba(0, 0, 0, 1)" stroke="none"/>
  <ellipse cx="408.538" cy="451.019" transform="rotate(-35.59 408.542 451.011)" rx="9.022" ry="16.247" fill="rgba(0, 0, 0, 1)" stroke="none"/>
  <ellipse cx="227.514" cy="410.024" transform="rotate(-35.59 227.52 410.02)" rx="9.022" ry="16.247" fill="rgba(0, 0, 0, 1)" stroke="none"/>
  <ellipse cx="318.639" cy="191.73" transform="rotate(-35.59 318.64 191.725)" rx="9.022" ry="16.247" fill="rgba(0, 0, 0, 1)" stroke="none"/>
  <path d="M484.512 355.756a7.5 7.5 0 0 0-8.051 6.93c-2.453 32.895-9.062 64.258-19.647 93.207-8.982 24.574-32.635 41.086-58.84 41.086-1.692 0-3.415-.07-5.107-.21-105.484-8.582-202.537-76.334-203.498-77.015-.06-.05-.12-.09-.18-.13-25.525-16.933-44.961-42.138-54.755-70.957a7.51 7.51 0 0 0-9.523-4.696 7.51 7.51 0 0 0-4.696 9.523c10.835 31.924 32.344 59.822 60.573 78.587 1.953 1.372 26.236 18.265 63.757 36.43 35.428 17.143 89.703 38.563 147.101 43.229 2.103.17 4.226.26 6.329.26 32.494 0 61.805-20.478 72.94-50.95 11.065-30.251 17.965-62.976 20.528-97.243.299-4.135-2.795-7.74-6.931-8.051z" fill="rgba(0, 0, 0, 1)" stroke="none"/>
  <path d="M477.413 219.93c-16.583-63.487-72.559-110.081-134.434-112.774 6.369-12.036 9.683-24.493 11.245-35.869a7.495 7.495 0 0 0-6.419-8.462c-4.106-.571-7.891 2.303-8.462 6.409-2.033 14.77-6.739 27.568-14.089 38.393-15.071 1.492-29.54 5.788-42.789 12.707a94.836 94.836 0 0 0 1.292-8.241c.471-4.126-2.503-7.841-6.619-8.301a7.502 7.502 0 0 0-8.301 6.629c-.871 7.761-2.904 15.301-6.088 22.611l-40.796 29.2c-2.447-3.407-4.408-5.774-5.107-6.659-8.071-13.198-15.842-31.463-15.842-52.922 0-24.744 10.234-49.408 30.422-73.31 1.652-1.963 3.765-2.253 4.877-2.253 2.033 0 3.915.921 5.147 2.533 5.327 6.97 11.576 16.282 16.803 27.207 3.977 8.263 7.151 17.033 9.072 26.116a7.523 7.523 0 0 0 8.902 5.798c4.056-.861 6.649-4.847 5.798-8.912-1.632-7.671-3.995-14.97-6.799-21.79 10.234-15.621 26.757-30.632 52.802-42.448a6.316 6.316 0 0 1 2.614-.571c2.604 0 5.608 1.762 6.319 5.127a164.292 164.292 0 0 1 3.034 20.728 7.5 7.5 0 0 0 8.081 6.889 7.505 7.505 0 0 0 6.889-8.081 179.43 179.43 0 0 0-3.305-22.651C349.568 7.16 340.726 0 330.642 0c-3.044 0-6.018.641-8.822 1.913-25.114 11.386-42.388 25.515-54.084 40.525-4.747-8.622-9.843-16.042-14.35-21.94-4.106-5.357-10.324-8.432-17.083-8.432a21.36 21.36 0 0 0-16.352 7.58c-22.541 26.687-33.966 54.615-33.966 83.003 0 3.875.23 7.65.631 11.326L153.54 67.763c-2.413-3.375-7.11-4.146-10.484-1.742-3.365 2.423-4.146 7.11-1.732 10.484l32.434 45.312c-23.702-10.655-56.427-14.96-98.865 1.652a21.308 21.308 0 0 0-12.617 13.529 21.386 21.386 0 0 0 2.644 18.385c3.955 5.908 9.363 13.208 16.172 20.668-19.727 6.819-38.413 19.557-55.846 38.122a21.288 21.288 0 0 0-5.788 14.63c0 7.66 3.915 14.57 10.484 18.485a177.952 177.952 0 0 0 20.428 10.464c3.815 1.642 8.231-.11 9.873-3.915 1.642-3.815-.11-8.231-3.915-9.874a163.202 163.202 0 0 1-18.696-9.583c-1.983-1.172-3.154-3.254-3.154-5.578 0-1.142.29-2.824 1.722-4.346 17.874-19.036 37.031-31.213 57.148-36.38 16.32 14.27 35.337 24.306 56.587 27.017-10.984 10.363-19.775 22.718-26.093 36.484-13.245 3.607-26.931 3.529-40.458.907-4.076-.781-8.011 1.873-8.802 5.948s1.873 8.011 5.948 8.802c7.4 1.432 14.74 2.163 21.81 2.163h.01c5.217 0 10.304-.381 15.261-1.132-3.505 11.916-5.337 24.594-5.337 37.752 0 5.518.33 11.135.981 16.693a7.51 7.51 0 0 0 14.92-1.742 129.542 129.542 0 0 1-.881-14.95c0-16.946 3.514-32.853 9.111-45.648 13.138-30.661 36.317-44.126 36.992-44.915l.499-.349.018-.013.032-.023.026-.019.014-.01 103.243-73.898c65.337-46.782 163.228-3.268 185.654 82.583 9.663 37.001 14.59 73.841 14.64 109.52.01 4.146 3.375 7.5 7.51 7.5 4.137 0 7.52-3.353 7.51-7.52-.06-36.952-5.147-75.074-15.13-113.296zM168.42 200.544c-18.386 1.54-36.66-3.219-54.324-15.311-6.028-4.116-11.466-8.752-16.312-13.488-8.892-8.712-15.742-17.784-20.388-24.714a6.416 6.416 0 0 1-.781-5.538c.34-1.091 1.282-3.074 3.755-4.046 17.274-6.759 33.576-10.134 48.827-10.134 29.048 0 53.826 12.473 72.96 34.187l5.708 7.981c.441.641.881 1.272 1.322 1.883l-40.767 29.18z" fill="rgba(0, 0, 0, 1)" stroke="none"/>
  <path d="M173.898 215.104l-.001.001.011-.008z" fill="rgba(0, 0, 0, 1)" stroke="none"/>
  <path d="M173.896 215.105l-.002.002.003-.002z" fill="rgba(0, 0, 0, 1)" stroke="none"/>
</svg>
</g></svg></g></g>
<!-- /image 81632 -->

<!-- image 72377 -->
<g id="transformed-72377" data-image="72377" transform="translate(201.13210508067885, -19.147894919321153) rotate(347, 33.997894919321155, 33.997894919321155)"><g><svg version="1.1" width="67.99578983864231px" height="67.99578983864231px" viewBox="0 0 67.99578983864231 67.99578983864231"><g id="original-72377"><svg xmlns="http://www.w3.org/2000/svg" viewBox="0 0 255.636 255.636" xmlns:xlink="http://www.w3.org/1999/xlink" version="1.1" preserveAspectRatio="xMidYMid meet">
  <path d="M125.67 254.586a2.723 2.723 0 0 0 4.296 0l38.073-48.952c.37-.479.571-1.066.571-1.67V46.232c0-.506-.174-.952-.419-1.36.245-.408.419-.854.419-1.36V2.72A2.72 2.72 0 0 0 165.89 0H89.745a2.72 2.72 0 0 0-2.72 2.72v24.476a2.72 2.72 0 0 0 5.44 0V5.439h70.708v38.073H89.745a2.72 2.72 0 0 0-2.72 2.72v157.733c0 .604.201 1.191.571 1.67l38.074 48.951zM92.464 48.952h32.634v119.659a2.72 2.72 0 0 0 5.44 0V48.952h32.634v154.083l-35.354 45.454-32.515-41.805h29.795a2.72 2.72 0 0 0 0-5.44H92.464V48.952z" fill="rgba(1, 0, 2, 1)" stroke="none"/>
</svg>
</g></svg></g></g>
<!-- /image 72377 -->
</defs><rect x="0" y="0" width="250" height="250" fill="rgba(234, 233, 233, 1)"></rect><use xlink:href="#transformed-18402" transform="translate(-250, -250)"></use><use xlink:href="#transformed-18402" transform="translate(0, -250)"></use><use xlink:href="#transformed-18402" transform="translate(250, -250)"></use><use xlink:href="#transformed-18402" transform="translate(-250, 0)"></use><use xlink:href="#transformed-18402" transform="translate(0, 0)"></use><use xlink:href="#transformed-18402" transform="translate(250, 0)"></use><use xlink:href="#transformed-18402" transform="translate(-250, 250)"></use><use xlink:href="#transformed-18402" transform="translate(0, 250)"></use><use xlink:href="#transformed-18402" transform="translate(250, 250)"></use><use xlink:href="#transformed-43219" transform="translate(-250, -250)"></use><use xlink:href="#transformed-43219" transform="translate(0, -250)"></use><use xlink:href="#transformed-43219" transform="translate(250, -250)"></use><use xlink:href="#transformed-43219" transform="translate(-250, 0)"></use><use xlink:href="#transformed-43219" transform="translate(0, 0)"></use><use xlink:href="#transformed-43219" transform="translate(250, 0)"></use><use xlink:href="#transformed-43219" transform="translate(-250, 250)"></use><use xlink:href="#transformed-43219" transform="translate(0, 250)"></use><use xlink:href="#transformed-43219" transform="translate(250, 250)"></use><use xlink:href="#transformed-21132" transform="translate(-250, -250)"></use><use xlink:href="#transformed-21132" transform="translate(0, -250)"></use><use xlink:href="#transformed-21132" transform="translate(250, -250)"></use><use xlink:href="#transformed-21132" transform="translate(-250, 0)"></use><use xlink:href="#transformed-21132" transform="translate(0, 0)"></use><use xlink:href="#transformed-21132" transform="translate(250, 0)"></use><use xlink:href="#transformed-21132" transform="translate(-250, 250)"></use><use xlink:href="#transformed-21132" transform="translate(0, 250)"></use><use xlink:href="#transformed-21132" transform="translate(250, 250)"></use><use xlink:href="#transformed-81632" transform="translate(-250, -250)"></use><use xlink:href="#transformed-81632" transform="translate(0, -250)"></use><use xlink:href="#transformed-81632" transform="translate(250, -250)"></use><use xlink:href="#transformed-81632" transform="translate(-250, 0)"></use><use xlink:href="#transformed-81632" transform="translate(0, 0)"></use><use xlink:href="#transformed-81632" transform="translate(250, 0)"></use><use xlink:href="#transformed-81632" transform="translate(-250, 250)"></use><use xlink:href="#transformed-81632" transform="translate(0, 250)"></use><use xlink:href="#transformed-81632" transform="translate(250, 250)"></use><use xlink:href="#transformed-72377" transform="translate(-250, -250)"></use><use xlink:href="#transformed-72377" transform="translate(0, -250)"></use><use xlink:href="#transformed-72377" transform="translate(250, -250)"></use><use xlink:href="#transformed-72377" transform="translate(-250, 0)"></use><use xlink:href="#transformed-72377" transform="translate(0, 0)"></use><use xlink:href="#transformed-72377" transform="translate(250, 0)"></use><use xlink:href="#transformed-72377" transform="translate(-250, 250)"></use><use xlink:href="#transformed-72377" transform="translate(0, 250)"></use><use xlink:href="#transformed-72377" transform="translate(250, 250)"></use></svg>